# MagicaVoxel @ Ephtracy

# group
o 

# material
mtllib gold.mtl
usemtl palette

# normals
vn -1 0 0
vn 1 0 0
vn 0 0 1
vn 0 0 -1
vn 0 -1 0
vn 0 1 0

# texcoords
vt 0.0136719 0.5
vt 0.0292969 0.5
vt 0.537109 0.5
vt 0.861328 0.5
vt 0.873047 0.5
vt 0.876953 0.5
vt 0.958984 0.5

# verts
v -1.1 1.8 -0.8
v -1.1 1.8 -1.2
v -1.1 4.7 -0.8
v -1.1 4.7 -1.2
v -0.9 0 0.8
v -0.9 0 -0.8
v -0.9 1.8 1.4
v -0.9 1.8 0.8
v -0.9 1.8 -0.8
v -0.9 2.2 1.4
v -0.9 2.2 -0.8
v -0.5 2.9 0.9
v -0.5 2.9 -0.2
v -0.5 3.2 0.3
v -0.5 3.2 -0.2
v -0.5 3.3 0.4
v -0.5 3.3 0.3
v -0.5 3.4 0.5
v -0.5 3.4 0.4
v -0.5 3.5 0.6
v -0.5 3.5 0.5
v -0.5 3.6 0.7
v -0.5 3.6 0.6
v -0.5 3.7 0.9
v -0.5 3.7 0.7
v -0.5 3.9 0.9
v -0.5 3.9 -0.2
v -0.3 2.2 0.6
v -0.3 2.2 0
v -0.3 2.9 0.6
v -0.3 2.9 0
v 0.3 2.2 0.6
v 0.3 2.2 0
v 0.3 2.9 0.6
v 0.3 2.9 0
v 0.5 2.9 0.9
v 0.5 2.9 -0.2
v 0.5 3.2 0.3
v 0.5 3.2 -0.2
v 0.5 3.3 0.4
v 0.5 3.3 0.3
v 0.5 3.4 0.5
v 0.5 3.4 0.4
v 0.5 3.5 0.6
v 0.5 3.5 0.5
v 0.5 3.6 0.7
v 0.5 3.6 0.6
v 0.5 3.7 0.9
v 0.5 3.7 0.7
v 0.5 3.9 0.9
v 0.5 3.9 -0.2
v 0.8 0 0.8
v 0.8 0 -0.8
v 0.8 1.8 1.4
v 0.8 1.8 0.8
v 0.8 1.8 -0.8
v 0.8 2.2 1.4
v 0.8 2.2 -0.8
v 1 1.8 -0.8
v 1 1.8 -1.2
v 1 4.7 -0.8
v 1 4.7 -1.2
v -0.9 1.8 1.4
v -0.9 2.2 1.4
v 0.8 1.8 1.4
v 0.8 2.2 1.4
v -0.5 2.9 0.9
v -0.5 3.7 0.9
v -0.5 3.9 0.9
v -0.4 3.5 0.9
v -0.4 3.6 0.9
v -0.3 3.1 0.9
v -0.3 3.2 0.9
v -0.3 3.3 0.9
v -0.3 3.5 0.9
v -0.3 3.6 0.9
v -0.2 3.1 0.9
v -0.2 3.2 0.9
v -0.2 3.3 0.9
v -0.2 3.5 0.9
v -0.2 3.6 0.9
v -0.1 3.2 0.9
v -0.1 3.3 0.9
v 0.1 3.2 0.9
v 0.1 3.3 0.9
v 0.2 3.1 0.9
v 0.2 3.2 0.9
v 0.2 3.3 0.9
v 0.2 3.5 0.9
v 0.2 3.6 0.9
v 0.3 3.1 0.9
v 0.3 3.2 0.9
v 0.3 3.3 0.9
v 0.3 3.5 0.9
v 0.3 3.6 0.9
v 0.4 3.5 0.9
v 0.4 3.6 0.9
v 0.5 2.9 0.9
v 0.5 3.7 0.9
v 0.5 3.9 0.9
v -0.9 0 0.8
v -0.9 1.8 0.8
v 0.8 0 0.8
v 0.8 1.8 0.8
v -0.3 2.2 0.6
v -0.3 2.9 0.6
v 0.3 2.2 0.6
v 0.3 2.9 0.6
v -1.1 1.8 -0.8
v -1.1 4.7 -0.8
v -0.9 1.8 -0.8
v -0.9 2.2 -0.8
v 0.8 1.8 -0.8
v 0.8 2.2 -0.8
v 1 1.8 -0.8
v 1 4.7 -0.8
v -0.3 2.2 0
v -0.3 2.9 0
v 0.3 2.2 0
v 0.3 2.9 0
v -0.5 2.9 -0.2
v -0.5 3.2 -0.2
v -0.5 3.9 -0.2
v 0.5 2.9 -0.2
v 0.5 3.2 -0.2
v 0.5 3.9 -0.2
v -0.9 0 -0.8
v -0.9 1.8 -0.8
v 0.8 0 -0.8
v 0.8 1.8 -0.8
v -1.1 1.8 -1.2
v -1.1 4.7 -1.2
v 1 1.8 -1.2
v 1 4.7 -1.2
v -0.9 0 0.8
v 0.8 0 0.8
v -0.9 0 -0.8
v 0.8 0 -0.8
v -0.9 1.8 1.4
v 0.8 1.8 1.4
v -0.9 1.8 0.8
v 0.8 1.8 0.8
v -1.1 1.8 -0.8
v -0.9 1.8 -0.8
v 0.8 1.8 -0.8
v 1 1.8 -0.8
v -1.1 1.8 -1.2
v 1 1.8 -1.2
v -0.5 2.9 0.9
v 0.5 2.9 0.9
v -0.3 2.9 0.6
v 0.3 2.9 0.6
v -0.3 2.9 0
v 0.3 2.9 0
v -0.5 2.9 -0.2
v 0.5 2.9 -0.2
v -0.9 2.2 1.4
v 0.8 2.2 1.4
v -0.3 2.2 0.6
v 0.3 2.2 0.6
v -0.3 2.2 0
v 0.3 2.2 0
v -0.9 2.2 -0.8
v 0.8 2.2 -0.8
v -0.5 3.9 0.9
v 0.5 3.9 0.9
v -0.5 3.9 -0.2
v 0.5 3.9 -0.2
v -1.1 4.7 -0.8
v 1 4.7 -0.8
v -1.1 4.7 -1.2
v 1 4.7 -1.2

# faces
f 3/1/1 2/1/1 1/1/1
f 4/1/1 2/1/1 3/1/1
f 8/1/1 6/1/1 5/1/1
f 9/1/1 6/1/1 8/1/1
f 10/1/1 8/1/1 7/1/1
f 10/1/1 9/1/1 8/1/1
f 11/1/1 9/1/1 10/1/1
f 14/2/1 13/2/1 12/2/1
f 15/2/1 13/2/1 14/2/1
f 16/2/1 14/2/1 12/2/1
f 17/3/1 15/3/1 14/3/1
f 17/2/1 14/2/1 16/2/1
f 18/2/1 16/2/1 12/2/1
f 19/3/1 17/3/1 16/3/1
f 19/2/1 16/2/1 18/2/1
f 20/2/1 18/2/1 12/2/1
f 21/3/1 19/3/1 18/3/1
f 21/2/1 18/2/1 20/2/1
f 22/2/1 20/2/1 12/2/1
f 23/3/1 21/3/1 20/3/1
f 23/2/1 20/2/1 22/2/1
f 24/2/1 22/2/1 12/2/1
f 25/3/1 23/3/1 22/3/1
f 25/2/1 22/2/1 24/2/1
f 26/3/1 25/3/1 24/3/1
f 27/3/1 15/3/1 17/3/1
f 27/3/1 25/3/1 26/3/1
f 27/3/1 17/3/1 19/3/1
f 27/3/1 23/3/1 25/3/1
f 27/3/1 19/3/1 21/3/1
f 27/3/1 21/3/1 23/3/1
f 30/2/1 29/2/1 28/2/1
f 31/2/1 29/2/1 30/2/1
f 32/2/2 33/2/2 34/2/2
f 34/2/2 33/2/2 35/2/2
f 36/2/2 37/2/2 38/2/2
f 38/2/2 37/2/2 39/2/2
f 36/2/2 38/2/2 40/2/2
f 38/3/2 39/3/2 41/3/2
f 40/2/2 38/2/2 41/2/2
f 36/2/2 40/2/2 42/2/2
f 40/3/2 41/3/2 43/3/2
f 42/2/2 40/2/2 43/2/2
f 36/2/2 42/2/2 44/2/2
f 42/3/2 43/3/2 45/3/2
f 44/2/2 42/2/2 45/2/2
f 36/2/2 44/2/2 46/2/2
f 44/3/2 45/3/2 47/3/2
f 46/2/2 44/2/2 47/2/2
f 36/2/2 46/2/2 48/2/2
f 46/3/2 47/3/2 49/3/2
f 48/2/2 46/2/2 49/2/2
f 48/3/2 49/3/2 50/3/2
f 41/3/2 39/3/2 51/3/2
f 50/3/2 49/3/2 51/3/2
f 43/3/2 41/3/2 51/3/2
f 49/3/2 47/3/2 51/3/2
f 45/3/2 43/3/2 51/3/2
f 47/3/2 45/3/2 51/3/2
f 52/1/2 53/1/2 55/1/2
f 55/1/2 53/1/2 56/1/2
f 54/1/2 55/1/2 57/1/2
f 55/1/2 56/1/2 57/1/2
f 57/1/2 56/1/2 58/1/2
f 59/1/2 60/1/2 61/1/2
f 61/1/2 60/1/2 62/1/2
f 65/1/3 64/1/3 63/1/3
f 66/1/3 64/1/3 65/1/3
f 70/2/3 68/2/3 67/2/3
f 71/2/3 68/2/3 70/2/3
f 72/2/3 70/2/3 67/2/3
f 73/2/3 70/2/3 72/2/3
f 74/2/3 70/2/3 73/2/3
f 75/7/3 71/7/3 70/7/3
f 75/2/3 70/2/3 74/2/3
f 76/2/3 68/2/3 71/2/3
f 76/7/3 71/7/3 75/7/3
f 77/2/3 72/2/3 67/2/3
f 77/4/3 73/4/3 72/4/3
f 78/7/3 74/7/3 73/7/3
f 78/4/3 73/4/3 77/4/3
f 79/2/3 75/2/3 74/2/3
f 79/7/3 74/7/3 78/7/3
f 80/6/3 76/6/3 75/6/3
f 80/2/3 75/2/3 79/2/3
f 81/2/3 68/2/3 76/2/3
f 81/6/3 76/6/3 80/6/3
f 82/5/3 78/5/3 77/5/3
f 82/5/3 79/5/3 78/5/3
f 83/2/3 80/2/3 79/2/3
f 83/5/3 79/5/3 82/5/3
f 83/2/3 81/2/3 80/2/3
f 84/5/3 82/5/3 77/5/3
f 84/7/3 83/7/3 82/7/3
f 85/2/3 81/2/3 83/2/3
f 85/7/3 83/7/3 84/7/3
f 86/2/3 77/2/3 67/2/3
f 86/5/3 84/5/3 77/5/3
f 86/5/3 85/5/3 84/5/3
f 87/5/3 85/5/3 86/5/3
f 88/2/3 81/2/3 85/2/3
f 88/5/3 85/5/3 87/5/3
f 89/2/3 81/2/3 88/2/3
f 90/2/3 68/2/3 81/2/3
f 90/2/3 81/2/3 89/2/3
f 91/4/3 87/4/3 86/4/3
f 91/2/3 86/2/3 67/2/3
f 92/7/3 88/7/3 87/7/3
f 92/4/3 87/4/3 91/4/3
f 93/2/3 89/2/3 88/2/3
f 93/7/3 88/7/3 92/7/3
f 94/6/3 90/6/3 89/6/3
f 94/2/3 89/2/3 93/2/3
f 95/2/3 68/2/3 90/2/3
f 95/6/3 90/6/3 94/6/3
f 96/2/3 92/2/3 91/2/3
f 96/2/3 94/2/3 93/2/3
f 96/7/3 95/7/3 94/7/3
f 96/2/3 93/2/3 92/2/3
f 97/2/3 68/2/3 95/2/3
f 97/7/3 95/7/3 96/7/3
f 98/2/3 96/2/3 91/2/3
f 98/2/3 91/2/3 67/2/3
f 98/2/3 97/2/3 96/2/3
f 99/3/3 69/3/3 68/3/3
f 99/2/3 97/2/3 98/2/3
f 99/2/3 68/2/3 97/2/3
f 100/3/3 69/3/3 99/3/3
f 103/1/3 102/1/3 101/1/3
f 104/1/3 102/1/3 103/1/3
f 107/2/3 106/2/3 105/2/3
f 108/2/3 106/2/3 107/2/3
f 111/1/3 110/1/3 109/1/3
f 112/1/3 110/1/3 111/1/3
f 114/1/3 110/1/3 112/1/3
f 115/1/3 114/1/3 113/1/3
f 116/1/3 110/1/3 114/1/3
f 116/1/3 114/1/3 115/1/3
f 117/2/4 118/2/4 119/2/4
f 119/2/4 118/2/4 120/2/4
f 121/2/4 122/2/4 124/2/4
f 122/3/4 123/3/4 125/3/4
f 124/2/4 122/2/4 125/2/4
f 125/3/4 123/3/4 126/3/4
f 127/1/4 128/1/4 129/1/4
f 129/1/4 128/1/4 130/1/4
f 131/1/4 132/1/4 133/1/4
f 133/1/4 132/1/4 134/1/4
f 137/1/5 136/1/5 135/1/5
f 138/1/5 136/1/5 137/1/5
f 141/1/5 140/1/5 139/1/5
f 142/1/5 140/1/5 141/1/5
f 147/1/5 145/1/5 144/1/5
f 147/1/5 146/1/5 145/1/5
f 147/1/5 144/1/5 143/1/5
f 148/1/5 146/1/5 147/1/5
f 151/2/5 150/2/5 149/2/5
f 152/2/5 150/2/5 151/2/5
f 153/2/5 151/2/5 149/2/5
f 154/2/5 150/2/5 152/2/5
f 155/2/5 153/2/5 149/2/5
f 155/2/5 154/2/5 153/2/5
f 156/2/5 150/2/5 154/2/5
f 156/2/5 154/2/5 155/2/5
f 157/1/6 158/1/6 159/1/6
f 159/1/6 158/1/6 160/1/6
f 157/1/6 159/1/6 161/1/6
f 160/1/6 158/1/6 162/1/6
f 157/1/6 161/1/6 163/1/6
f 161/1/6 162/1/6 163/1/6
f 162/1/6 158/1/6 164/1/6
f 163/1/6 162/1/6 164/1/6
f 165/3/6 166/3/6 167/3/6
f 167/3/6 166/3/6 168/3/6
f 169/1/6 170/1/6 171/1/6
f 171/1/6 170/1/6 172/1/6
