# MagicaVoxel @ Ephtracy

# group
o 

# material
mtllib purple.mtl
usemtl palette

# normals
vn -1 0 0
vn 1 0 0
vn 0 0 1
vn 0 0 -1
vn 0 -1 0
vn 0 1 0

# texcoords
vt 0.0292969 0.5
vt 0.521484 0.5
vt 0.537109 0.5
vt 0.861328 0.5
vt 0.873047 0.5
vt 0.876953 0.5
vt 0.958984 0.5

# verts
v -1.1 1.8 -0.8
v -1.1 1.8 -1.2
v -1.1 4.7 -0.8
v -1.1 4.7 -1.2
v -0.9 0 0.8
v -0.9 0 -0.8
v -0.9 1.8 1.4
v -0.9 1.8 0.8
v -0.9 1.8 -0.8
v -0.9 2.2 1.4
v -0.9 2.2 -0.8
v -0.5 2.9 0.9
v -0.5 2.9 -0.2
v -0.5 3.2 0.3
v -0.5 3.2 -0.2
v -0.5 3.3 0.4
v -0.5 3.3 0.3
v -0.5 3.4 0.5
v -0.5 3.4 0.4
v -0.5 3.5 0.6
v -0.5 3.5 0.5
v -0.5 3.6 0.7
v -0.5 3.6 0.6
v -0.5 3.7 0.9
v -0.5 3.7 0.7
v -0.5 3.9 0.9
v -0.5 3.9 -0.2
v -0.3 2.2 0.6
v -0.3 2.2 0
v -0.3 2.9 0.6
v -0.3 2.9 0
v 0.3 2.2 0.6
v 0.3 2.2 0
v 0.3 2.9 0.6
v 0.3 2.9 0
v 0.5 2.9 0.9
v 0.5 2.9 -0.2
v 0.5 3.2 0.3
v 0.5 3.2 -0.2
v 0.5 3.3 0.4
v 0.5 3.3 0.3
v 0.5 3.4 0.5
v 0.5 3.4 0.4
v 0.5 3.5 0.6
v 0.5 3.5 0.5
v 0.5 3.6 0.7
v 0.5 3.6 0.6
v 0.5 3.7 0.9
v 0.5 3.7 0.7
v 0.5 3.9 0.9
v 0.5 3.9 -0.2
v 0.8 0 0.8
v 0.8 0 -0.8
v 0.8 1.8 1.4
v 0.8 1.8 0.8
v 0.8 1.8 -0.8
v 0.8 2.2 1.4
v 0.8 2.2 -0.8
v 1 1.8 -0.8
v 1 1.8 -1.2
v 1 4.7 -0.8
v 1 4.7 -1.2
v -0.9 1.8 1.4
v -0.9 2.2 1.4
v 0.8 1.8 1.4
v 0.8 2.2 1.4
v -0.5 2.9 0.9
v -0.5 3.7 0.9
v -0.5 3.9 0.9
v -0.4 3.5 0.9
v -0.4 3.6 0.9
v -0.3 3.1 0.9
v -0.3 3.2 0.9
v -0.3 3.3 0.9
v -0.3 3.5 0.9
v -0.3 3.6 0.9
v -0.2 3.1 0.9
v -0.2 3.2 0.9
v -0.2 3.3 0.9
v -0.2 3.5 0.9
v -0.2 3.6 0.9
v -0.1 3.2 0.9
v -0.1 3.3 0.9
v 0.1 3.2 0.9
v 0.1 3.3 0.9
v 0.2 3.1 0.9
v 0.2 3.2 0.9
v 0.2 3.3 0.9
v 0.2 3.5 0.9
v 0.2 3.6 0.9
v 0.3 3.1 0.9
v 0.3 3.2 0.9
v 0.3 3.3 0.9
v 0.3 3.5 0.9
v 0.3 3.6 0.9
v 0.4 3.5 0.9
v 0.4 3.6 0.9
v 0.5 2.9 0.9
v 0.5 3.7 0.9
v 0.5 3.9 0.9
v -0.9 0 0.8
v -0.9 1.8 0.8
v 0.8 0 0.8
v 0.8 1.8 0.8
v -0.3 2.2 0.6
v -0.3 2.9 0.6
v 0.3 2.2 0.6
v 0.3 2.9 0.6
v -1.1 1.8 -0.8
v -1.1 4.7 -0.8
v -0.9 1.8 -0.8
v -0.9 2.2 -0.8
v 0.8 1.8 -0.8
v 0.8 2.2 -0.8
v 1 1.8 -0.8
v 1 4.7 -0.8
v -0.3 2.2 0
v -0.3 2.9 0
v 0.3 2.2 0
v 0.3 2.9 0
v -0.5 2.9 -0.2
v -0.5 3.2 -0.2
v -0.5 3.9 -0.2
v 0.5 2.9 -0.2
v 0.5 3.2 -0.2
v 0.5 3.9 -0.2
v -0.9 0 -0.8
v -0.9 1.8 -0.8
v 0.8 0 -0.8
v 0.8 1.8 -0.8
v -1.1 1.8 -1.2
v -1.1 4.7 -1.2
v 1 1.8 -1.2
v 1 4.7 -1.2
v -0.9 0 0.8
v 0.8 0 0.8
v -0.9 0 -0.8
v 0.8 0 -0.8
v -0.9 1.8 1.4
v 0.8 1.8 1.4
v -0.9 1.8 0.8
v 0.8 1.8 0.8
v -1.1 1.8 -0.8
v -0.9 1.8 -0.8
v 0.8 1.8 -0.8
v 1 1.8 -0.8
v -1.1 1.8 -1.2
v 1 1.8 -1.2
v -0.5 2.9 0.9
v 0.5 2.9 0.9
v -0.3 2.9 0.6
v 0.3 2.9 0.6
v -0.3 2.9 0
v 0.3 2.9 0
v -0.5 2.9 -0.2
v 0.5 2.9 -0.2
v -0.9 2.2 1.4
v 0.8 2.2 1.4
v -0.3 2.2 0.6
v 0.3 2.2 0.6
v -0.3 2.2 0
v 0.3 2.2 0
v -0.9 2.2 -0.8
v 0.8 2.2 -0.8
v -0.5 3.9 0.9
v 0.5 3.9 0.9
v -0.5 3.9 -0.2
v 0.5 3.9 -0.2
v -1.1 4.7 -0.8
v 1 4.7 -0.8
v -1.1 4.7 -1.2
v 1 4.7 -1.2

# faces
f 3/2/1 2/2/1 1/2/1
f 4/2/1 2/2/1 3/2/1
f 8/2/1 6/2/1 5/2/1
f 9/2/1 6/2/1 8/2/1
f 10/2/1 8/2/1 7/2/1
f 10/2/1 9/2/1 8/2/1
f 11/2/1 9/2/1 10/2/1
f 14/1/1 13/1/1 12/1/1
f 15/1/1 13/1/1 14/1/1
f 16/1/1 14/1/1 12/1/1
f 17/3/1 15/3/1 14/3/1
f 17/1/1 14/1/1 16/1/1
f 18/1/1 16/1/1 12/1/1
f 19/3/1 17/3/1 16/3/1
f 19/1/1 16/1/1 18/1/1
f 20/1/1 18/1/1 12/1/1
f 21/3/1 19/3/1 18/3/1
f 21/1/1 18/1/1 20/1/1
f 22/1/1 20/1/1 12/1/1
f 23/3/1 21/3/1 20/3/1
f 23/1/1 20/1/1 22/1/1
f 24/1/1 22/1/1 12/1/1
f 25/3/1 23/3/1 22/3/1
f 25/1/1 22/1/1 24/1/1
f 26/3/1 25/3/1 24/3/1
f 27/3/1 15/3/1 17/3/1
f 27/3/1 25/3/1 26/3/1
f 27/3/1 17/3/1 19/3/1
f 27/3/1 23/3/1 25/3/1
f 27/3/1 19/3/1 21/3/1
f 27/3/1 21/3/1 23/3/1
f 30/1/1 29/1/1 28/1/1
f 31/1/1 29/1/1 30/1/1
f 32/1/2 33/1/2 34/1/2
f 34/1/2 33/1/2 35/1/2
f 36/1/2 37/1/2 38/1/2
f 38/1/2 37/1/2 39/1/2
f 36/1/2 38/1/2 40/1/2
f 38/3/2 39/3/2 41/3/2
f 40/1/2 38/1/2 41/1/2
f 36/1/2 40/1/2 42/1/2
f 40/3/2 41/3/2 43/3/2
f 42/1/2 40/1/2 43/1/2
f 36/1/2 42/1/2 44/1/2
f 42/3/2 43/3/2 45/3/2
f 44/1/2 42/1/2 45/1/2
f 36/1/2 44/1/2 46/1/2
f 44/3/2 45/3/2 47/3/2
f 46/1/2 44/1/2 47/1/2
f 36/1/2 46/1/2 48/1/2
f 46/3/2 47/3/2 49/3/2
f 48/1/2 46/1/2 49/1/2
f 48/3/2 49/3/2 50/3/2
f 41/3/2 39/3/2 51/3/2
f 50/3/2 49/3/2 51/3/2
f 43/3/2 41/3/2 51/3/2
f 49/3/2 47/3/2 51/3/2
f 45/3/2 43/3/2 51/3/2
f 47/3/2 45/3/2 51/3/2
f 52/2/2 53/2/2 55/2/2
f 55/2/2 53/2/2 56/2/2
f 54/2/2 55/2/2 57/2/2
f 55/2/2 56/2/2 57/2/2
f 57/2/2 56/2/2 58/2/2
f 59/2/2 60/2/2 61/2/2
f 61/2/2 60/2/2 62/2/2
f 65/2/3 64/2/3 63/2/3
f 66/2/3 64/2/3 65/2/3
f 70/1/3 68/1/3 67/1/3
f 71/1/3 68/1/3 70/1/3
f 72/1/3 70/1/3 67/1/3
f 73/1/3 70/1/3 72/1/3
f 74/1/3 70/1/3 73/1/3
f 75/7/3 71/7/3 70/7/3
f 75/1/3 70/1/3 74/1/3
f 76/1/3 68/1/3 71/1/3
f 76/7/3 71/7/3 75/7/3
f 77/1/3 72/1/3 67/1/3
f 77/4/3 73/4/3 72/4/3
f 78/7/3 74/7/3 73/7/3
f 78/4/3 73/4/3 77/4/3
f 79/1/3 75/1/3 74/1/3
f 79/7/3 74/7/3 78/7/3
f 80/6/3 76/6/3 75/6/3
f 80/1/3 75/1/3 79/1/3
f 81/1/3 68/1/3 76/1/3
f 81/6/3 76/6/3 80/6/3
f 82/5/3 78/5/3 77/5/3
f 82/5/3 79/5/3 78/5/3
f 83/1/3 80/1/3 79/1/3
f 83/5/3 79/5/3 82/5/3
f 83/1/3 81/1/3 80/1/3
f 84/5/3 82/5/3 77/5/3
f 84/7/3 83/7/3 82/7/3
f 85/1/3 81/1/3 83/1/3
f 85/7/3 83/7/3 84/7/3
f 86/1/3 77/1/3 67/1/3
f 86/5/3 84/5/3 77/5/3
f 86/5/3 85/5/3 84/5/3
f 87/5/3 85/5/3 86/5/3
f 88/1/3 81/1/3 85/1/3
f 88/5/3 85/5/3 87/5/3
f 89/1/3 81/1/3 88/1/3
f 90/1/3 68/1/3 81/1/3
f 90/1/3 81/1/3 89/1/3
f 91/4/3 87/4/3 86/4/3
f 91/1/3 86/1/3 67/1/3
f 92/7/3 88/7/3 87/7/3
f 92/4/3 87/4/3 91/4/3
f 93/1/3 89/1/3 88/1/3
f 93/7/3 88/7/3 92/7/3
f 94/6/3 90/6/3 89/6/3
f 94/1/3 89/1/3 93/1/3
f 95/1/3 68/1/3 90/1/3
f 95/6/3 90/6/3 94/6/3
f 96/1/3 92/1/3 91/1/3
f 96/1/3 94/1/3 93/1/3
f 96/7/3 95/7/3 94/7/3
f 96/1/3 93/1/3 92/1/3
f 97/1/3 68/1/3 95/1/3
f 97/7/3 95/7/3 96/7/3
f 98/1/3 96/1/3 91/1/3
f 98/1/3 91/1/3 67/1/3
f 98/1/3 97/1/3 96/1/3
f 99/3/3 69/3/3 68/3/3
f 99/1/3 97/1/3 98/1/3
f 99/1/3 68/1/3 97/1/3
f 100/3/3 69/3/3 99/3/3
f 103/2/3 102/2/3 101/2/3
f 104/2/3 102/2/3 103/2/3
f 107/1/3 106/1/3 105/1/3
f 108/1/3 106/1/3 107/1/3
f 111/2/3 110/2/3 109/2/3
f 112/2/3 110/2/3 111/2/3
f 114/2/3 110/2/3 112/2/3
f 115/2/3 114/2/3 113/2/3
f 116/2/3 110/2/3 114/2/3
f 116/2/3 114/2/3 115/2/3
f 117/1/4 118/1/4 119/1/4
f 119/1/4 118/1/4 120/1/4
f 121/1/4 122/1/4 124/1/4
f 122/3/4 123/3/4 125/3/4
f 124/1/4 122/1/4 125/1/4
f 125/3/4 123/3/4 126/3/4
f 127/2/4 128/2/4 129/2/4
f 129/2/4 128/2/4 130/2/4
f 131/2/4 132/2/4 133/2/4
f 133/2/4 132/2/4 134/2/4
f 137/2/5 136/2/5 135/2/5
f 138/2/5 136/2/5 137/2/5
f 141/2/5 140/2/5 139/2/5
f 142/2/5 140/2/5 141/2/5
f 147/2/5 145/2/5 144/2/5
f 147/2/5 146/2/5 145/2/5
f 147/2/5 144/2/5 143/2/5
f 148/2/5 146/2/5 147/2/5
f 151/1/5 150/1/5 149/1/5
f 152/1/5 150/1/5 151/1/5
f 153/1/5 151/1/5 149/1/5
f 154/1/5 150/1/5 152/1/5
f 155/1/5 153/1/5 149/1/5
f 155/1/5 154/1/5 153/1/5
f 156/1/5 150/1/5 154/1/5
f 156/1/5 154/1/5 155/1/5
f 157/2/6 158/2/6 159/2/6
f 159/2/6 158/2/6 160/2/6
f 157/2/6 159/2/6 161/2/6
f 160/2/6 158/2/6 162/2/6
f 157/2/6 161/2/6 163/2/6
f 161/2/6 162/2/6 163/2/6
f 162/2/6 158/2/6 164/2/6
f 163/2/6 162/2/6 164/2/6
f 165/3/6 166/3/6 167/3/6
f 167/3/6 166/3/6 168/3/6
f 169/2/6 170/2/6 171/2/6
f 171/2/6 170/2/6 172/2/6
